# xmcd
#
# Track frame offsets:
#	150
#	13843
#	32522
#	46083
#	62886
#	80745
#	98453
#	118037
#	134765
#	151136
#	165987
#	187521
#	210631
#
# Disc length: 3028 seconds
#
# Revision: 1
# Processed by: cddbd v1.5PL3 Copyright (c) Steve Scherf et al.
# Submitted via: audiograbber 1.83.01
#
DISCID=9c0bd20d
DTITLE=Johnny D - Come Dance With Me
DYEAR=1995
DGENRE=Country
TTITLE0=Since I Been Left (ain't nothin been right)
TTITLE1=I Will
TTITLE2=Miss My Mind
TTITLE3=Only Woman Is You Girl
TTITLE4=Mind On The Wheel
TTITLE5=Breakfast in Menphis
TTITLE6=Keeping Company With Angels
TTITLE7=Laura
TTITLE8=Darlin
TTITLE9=All Night
TTITLE10=Good Times
TTITLE11=Please Come Home
TTITLE12=Cigarette Song
EXTD=
EXTT0=
EXTT1=
EXTT2=
EXTT3=
EXTT4=
EXTT5=
EXTT6=
EXTT7=
EXTT8=
EXTT9=
EXTT10=
EXTT11=
EXTT12=
PLAYORDER=
